<mxfile host="app.diagrams.net" modified="2023-06-08T19:47:19.630Z" agent="Mozilla/5.0 (Windows NT 10.0; Win64; x64) AppleWebKit/537.36 (KHTML, like Gecko) Chrome/113.0.0.0 Safari/537.36 OPR/99.0.0.0" etag="TxMaPIFNFw0Pz78sFFAQ" version="21.3.7" type="device">
  <diagram name="PÃ¡gina-1" id="lGyLWDN0S1-BME6WWKKG">
    <mxGraphModel dx="3176" dy="887" grid="1" gridSize="10" guides="1" tooltips="1" connect="1" arrows="1" fold="1" page="1" pageScale="1" pageWidth="827" pageHeight="1169" math="0" shadow="0">
      <root>
        <mxCell id="0" />
        <mxCell id="1" parent="0" />
        <mxCell id="k4hXc_sz66Rb-Vi4GGHc-1" value="Nivel&lt;br&gt;&amp;lt;&amp;lt;abstract&amp;gt;&amp;gt;" style="swimlane;fontStyle=1;align=center;verticalAlign=top;childLayout=stackLayout;horizontal=1;startSize=40;horizontalStack=0;resizeParent=1;resizeParentMax=0;resizeLast=0;collapsible=1;marginBottom=0;whiteSpace=wrap;html=1;" parent="1" vertex="1">
          <mxGeometry x="800" y="120" width="310" height="230" as="geometry" />
        </mxCell>
        <mxCell id="k4hXc_sz66Rb-Vi4GGHc-3" value="" style="line;strokeWidth=1;fillColor=none;align=left;verticalAlign=middle;spacingTop=-1;spacingLeft=3;spacingRight=3;rotatable=0;labelPosition=right;points=[];portConstraint=eastwest;strokeColor=inherit;" parent="k4hXc_sz66Rb-Vi4GGHc-1" vertex="1">
          <mxGeometry y="40" width="310" height="8" as="geometry" />
        </mxCell>
        <mxCell id="F9GrxfI-e3hsAR45wxRk-3" value="+opinar(Participante,Muestra,TipoDeOpinion,LocalDate)" style="text;strokeColor=none;fillColor=none;align=left;verticalAlign=top;spacingLeft=4;spacingRight=4;overflow=hidden;rotatable=0;points=[[0,0.5],[1,0.5]];portConstraint=eastwest;whiteSpace=wrap;html=1;" parent="k4hXc_sz66Rb-Vi4GGHc-1" vertex="1">
          <mxGeometry y="48" width="310" height="26" as="geometry" />
        </mxCell>
        <mxCell id="F9GrxfI-e3hsAR45wxRk-1" value="+recolectar(Participante,Muestra)" style="text;strokeColor=none;fillColor=none;align=left;verticalAlign=top;spacingLeft=4;spacingRight=4;overflow=hidden;rotatable=0;points=[[0,0.5],[1,0.5]];portConstraint=eastwest;whiteSpace=wrap;html=1;" parent="k4hXc_sz66Rb-Vi4GGHc-1" vertex="1">
          <mxGeometry y="74" width="310" height="26" as="geometry" />
        </mxCell>
        <mxCell id="qmfV9Jtpk2RZpAjD8yst-11" value="&lt;i&gt;+actualizarNivel(Participante)&lt;/i&gt;" style="text;strokeColor=none;fillColor=none;align=left;verticalAlign=top;spacingLeft=4;spacingRight=4;overflow=hidden;rotatable=0;points=[[0,0.5],[1,0.5]];portConstraint=eastwest;whiteSpace=wrap;html=1;" vertex="1" parent="k4hXc_sz66Rb-Vi4GGHc-1">
          <mxGeometry y="100" width="310" height="26" as="geometry" />
        </mxCell>
        <mxCell id="qmfV9Jtpk2RZpAjD8yst-12" value="&lt;i&gt;+puedeMantenerSuNivel(Participante):boolean&lt;/i&gt;" style="text;strokeColor=none;fillColor=none;align=left;verticalAlign=top;spacingLeft=4;spacingRight=4;overflow=hidden;rotatable=0;points=[[0,0.5],[1,0.5]];portConstraint=eastwest;whiteSpace=wrap;html=1;" vertex="1" parent="k4hXc_sz66Rb-Vi4GGHc-1">
          <mxGeometry y="126" width="310" height="26" as="geometry" />
        </mxCell>
        <mxCell id="qmfV9Jtpk2RZpAjD8yst-13" value="&lt;i&gt;+isBasico():boolean&lt;/i&gt;" style="text;strokeColor=none;fillColor=none;align=left;verticalAlign=top;spacingLeft=4;spacingRight=4;overflow=hidden;rotatable=0;points=[[0,0.5],[1,0.5]];portConstraint=eastwest;whiteSpace=wrap;html=1;" vertex="1" parent="k4hXc_sz66Rb-Vi4GGHc-1">
          <mxGeometry y="152" width="310" height="26" as="geometry" />
        </mxCell>
        <mxCell id="qmfV9Jtpk2RZpAjD8yst-14" value="&lt;i&gt;+isExperto():boolean&lt;/i&gt;" style="text;strokeColor=none;fillColor=none;align=left;verticalAlign=top;spacingLeft=4;spacingRight=4;overflow=hidden;rotatable=0;points=[[0,0.5],[1,0.5]];portConstraint=eastwest;whiteSpace=wrap;html=1;" vertex="1" parent="k4hXc_sz66Rb-Vi4GGHc-1">
          <mxGeometry y="178" width="310" height="26" as="geometry" />
        </mxCell>
        <mxCell id="qmfV9Jtpk2RZpAjD8yst-15" value="&lt;i&gt;+puedeOpinar(Muestra):boolean&lt;/i&gt;" style="text;strokeColor=none;fillColor=none;align=left;verticalAlign=top;spacingLeft=4;spacingRight=4;overflow=hidden;rotatable=0;points=[[0,0.5],[1,0.5]];portConstraint=eastwest;whiteSpace=wrap;html=1;" vertex="1" parent="k4hXc_sz66Rb-Vi4GGHc-1">
          <mxGeometry y="204" width="310" height="26" as="geometry" />
        </mxCell>
        <mxCell id="k4hXc_sz66Rb-Vi4GGHc-5" value="Participante" style="swimlane;fontStyle=1;align=center;verticalAlign=top;childLayout=stackLayout;horizontal=1;startSize=26;horizontalStack=0;resizeParent=1;resizeParentMax=0;resizeLast=0;collapsible=1;marginBottom=0;whiteSpace=wrap;html=1;" parent="1" vertex="1">
          <mxGeometry x="320" y="23" width="250" height="206" as="geometry" />
        </mxCell>
        <mxCell id="k4hXc_sz66Rb-Vi4GGHc-7" value="" style="line;strokeWidth=1;fillColor=none;align=left;verticalAlign=middle;spacingTop=-1;spacingLeft=3;spacingRight=3;rotatable=0;labelPosition=right;points=[];portConstraint=eastwest;strokeColor=inherit;" parent="k4hXc_sz66Rb-Vi4GGHc-5" vertex="1">
          <mxGeometry y="26" width="250" height="8" as="geometry" />
        </mxCell>
        <mxCell id="qmfV9Jtpk2RZpAjD8yst-33" value="&lt;u&gt;+ Participante(Ubicacion)&lt;/u&gt;" style="text;strokeColor=none;fillColor=none;align=left;verticalAlign=top;spacingLeft=4;spacingRight=4;overflow=hidden;rotatable=0;points=[[0,0.5],[1,0.5]];portConstraint=eastwest;whiteSpace=wrap;html=1;" vertex="1" parent="k4hXc_sz66Rb-Vi4GGHc-5">
          <mxGeometry y="34" width="250" height="16" as="geometry" />
        </mxCell>
        <mxCell id="k4hXc_sz66Rb-Vi4GGHc-8" value="+recolectar(TipoOpinion, LocalDate)" style="text;strokeColor=none;fillColor=none;align=left;verticalAlign=top;spacingLeft=4;spacingRight=4;overflow=hidden;rotatable=0;points=[[0,0.5],[1,0.5]];portConstraint=eastwest;whiteSpace=wrap;html=1;" parent="k4hXc_sz66Rb-Vi4GGHc-5" vertex="1">
          <mxGeometry y="50" width="250" height="16" as="geometry" />
        </mxCell>
        <mxCell id="k4hXc_sz66Rb-Vi4GGHc-23" value="+opinar(Muestra,TipoOpinion, LocalDate)" style="text;strokeColor=none;fillColor=none;align=left;verticalAlign=top;spacingLeft=4;spacingRight=4;overflow=hidden;rotatable=0;points=[[0,0.5],[1,0.5]];portConstraint=eastwest;whiteSpace=wrap;html=1;" parent="k4hXc_sz66Rb-Vi4GGHc-5" vertex="1">
          <mxGeometry y="66" width="250" height="20" as="geometry" />
        </mxCell>
        <mxCell id="qmfV9Jtpk2RZpAjD8yst-3" value="+agregarOpinion(Opinion)" style="text;strokeColor=none;fillColor=none;align=left;verticalAlign=top;spacingLeft=4;spacingRight=4;overflow=hidden;rotatable=0;points=[[0,0.5],[1,0.5]];portConstraint=eastwest;whiteSpace=wrap;html=1;" vertex="1" parent="k4hXc_sz66Rb-Vi4GGHc-5">
          <mxGeometry y="86" width="250" height="20" as="geometry" />
        </mxCell>
        <mxCell id="qmfV9Jtpk2RZpAjD8yst-4" value="+agregarMuestra(Muestra)" style="text;strokeColor=none;fillColor=none;align=left;verticalAlign=top;spacingLeft=4;spacingRight=4;overflow=hidden;rotatable=0;points=[[0,0.5],[1,0.5]];portConstraint=eastwest;whiteSpace=wrap;html=1;" vertex="1" parent="k4hXc_sz66Rb-Vi4GGHc-5">
          <mxGeometry y="106" width="250" height="20" as="geometry" />
        </mxCell>
        <mxCell id="qmfV9Jtpk2RZpAjD8yst-5" value="+enviosDeLosUltimos30Dias():[Muestra]" style="text;strokeColor=none;fillColor=none;align=left;verticalAlign=top;spacingLeft=4;spacingRight=4;overflow=hidden;rotatable=0;points=[[0,0.5],[1,0.5]];portConstraint=eastwest;whiteSpace=wrap;html=1;" vertex="1" parent="k4hXc_sz66Rb-Vi4GGHc-5">
          <mxGeometry y="126" width="250" height="20" as="geometry" />
        </mxCell>
        <mxCell id="qmfV9Jtpk2RZpAjD8yst-8" value="+revisionesDeLosUltimos30Dias():[Opinion]" style="text;strokeColor=none;fillColor=none;align=left;verticalAlign=top;spacingLeft=4;spacingRight=4;overflow=hidden;rotatable=0;points=[[0,0.5],[1,0.5]];portConstraint=eastwest;whiteSpace=wrap;html=1;" vertex="1" parent="k4hXc_sz66Rb-Vi4GGHc-5">
          <mxGeometry y="146" width="250" height="20" as="geometry" />
        </mxCell>
        <mxCell id="qmfV9Jtpk2RZpAjD8yst-9" value="+cantRevisionesDeLosUltimos30Dias():int" style="text;strokeColor=none;fillColor=none;align=left;verticalAlign=top;spacingLeft=4;spacingRight=4;overflow=hidden;rotatable=0;points=[[0,0.5],[1,0.5]];portConstraint=eastwest;whiteSpace=wrap;html=1;" vertex="1" parent="k4hXc_sz66Rb-Vi4GGHc-5">
          <mxGeometry y="166" width="250" height="20" as="geometry" />
        </mxCell>
        <mxCell id="qmfV9Jtpk2RZpAjD8yst-10" value="+cantEnviosDeLosUltimos30Dias():int" style="text;strokeColor=none;fillColor=none;align=left;verticalAlign=top;spacingLeft=4;spacingRight=4;overflow=hidden;rotatable=0;points=[[0,0.5],[1,0.5]];portConstraint=eastwest;whiteSpace=wrap;html=1;" vertex="1" parent="k4hXc_sz66Rb-Vi4GGHc-5">
          <mxGeometry y="186" width="250" height="20" as="geometry" />
        </mxCell>
        <mxCell id="qmfV9Jtpk2RZpAjD8yst-66" value="" style="edgeStyle=orthogonalEdgeStyle;rounded=0;orthogonalLoop=1;jettySize=auto;html=1;entryX=1.009;entryY=0.826;entryDx=0;entryDy=0;entryPerimeter=0;" edge="1" parent="1" source="k4hXc_sz66Rb-Vi4GGHc-9" target="qmfV9Jtpk2RZpAjD8yst-53">
          <mxGeometry relative="1" as="geometry">
            <mxPoint x="-155" y="153.9999999999999" as="targetPoint" />
          </mxGeometry>
        </mxCell>
        <mxCell id="k4hXc_sz66Rb-Vi4GGHc-9" value="Muestra" style="swimlane;fontStyle=1;align=center;verticalAlign=top;childLayout=stackLayout;horizontal=1;startSize=26;horizontalStack=0;resizeParent=1;resizeParentMax=0;resizeLast=0;collapsible=1;marginBottom=0;whiteSpace=wrap;html=1;" parent="1" vertex="1">
          <mxGeometry y="23" width="230" height="262" as="geometry" />
        </mxCell>
        <mxCell id="qmfV9Jtpk2RZpAjD8yst-46" value="-verificada:boolean" style="text;strokeColor=none;fillColor=none;align=left;verticalAlign=top;spacingLeft=4;spacingRight=4;overflow=hidden;rotatable=0;points=[[0,0.5],[1,0.5]];portConstraint=eastwest;whiteSpace=wrap;html=1;" vertex="1" parent="k4hXc_sz66Rb-Vi4GGHc-9">
          <mxGeometry y="26" width="230" height="26" as="geometry" />
        </mxCell>
        <mxCell id="qmfV9Jtpk2RZpAjD8yst-45" value="-fecha:LocalDate" style="text;strokeColor=none;fillColor=none;align=left;verticalAlign=top;spacingLeft=4;spacingRight=4;overflow=hidden;rotatable=0;points=[[0,0.5],[1,0.5]];portConstraint=eastwest;whiteSpace=wrap;html=1;" vertex="1" parent="k4hXc_sz66Rb-Vi4GGHc-9">
          <mxGeometry y="52" width="230" height="26" as="geometry" />
        </mxCell>
        <mxCell id="k4hXc_sz66Rb-Vi4GGHc-11" value="" style="line;strokeWidth=1;fillColor=none;align=left;verticalAlign=middle;spacingTop=-1;spacingLeft=3;spacingRight=3;rotatable=0;labelPosition=right;points=[];portConstraint=eastwest;strokeColor=inherit;" parent="k4hXc_sz66Rb-Vi4GGHc-9" vertex="1">
          <mxGeometry y="78" width="230" height="8" as="geometry" />
        </mxCell>
        <mxCell id="qmfV9Jtpk2RZpAjD8yst-36" value="+Muestra(Participante,LocalDate)" style="text;strokeColor=none;fillColor=none;align=left;verticalAlign=top;spacingLeft=4;spacingRight=4;overflow=hidden;rotatable=0;points=[[0,0.5],[1,0.5]];portConstraint=eastwest;whiteSpace=wrap;html=1;" vertex="1" parent="k4hXc_sz66Rb-Vi4GGHc-9">
          <mxGeometry y="86" width="230" height="26" as="geometry" />
        </mxCell>
        <mxCell id="qmfV9Jtpk2RZpAjD8yst-37" value="&amp;nbsp;+isVerificada(): boolean" style="text;strokeColor=none;fillColor=none;align=left;verticalAlign=top;spacingLeft=4;spacingRight=4;overflow=hidden;rotatable=0;points=[[0,0.5],[1,0.5]];portConstraint=eastwest;whiteSpace=wrap;html=1;" vertex="1" parent="k4hXc_sz66Rb-Vi4GGHc-9">
          <mxGeometry y="112" width="230" height="30" as="geometry" />
        </mxCell>
        <mxCell id="qmfV9Jtpk2RZpAjD8yst-38" value="&amp;nbsp;+resultadoActual():TipoDeOpinion" style="text;strokeColor=none;fillColor=none;align=left;verticalAlign=top;spacingLeft=4;spacingRight=4;overflow=hidden;rotatable=0;points=[[0,0.5],[1,0.5]];portConstraint=eastwest;whiteSpace=wrap;html=1;" vertex="1" parent="k4hXc_sz66Rb-Vi4GGHc-9">
          <mxGeometry y="142" width="230" height="30" as="geometry" />
        </mxCell>
        <mxCell id="qmfV9Jtpk2RZpAjD8yst-39" value="&amp;nbsp;+agregarOpinion(Opinion):&amp;nbsp;" style="text;strokeColor=none;fillColor=none;align=left;verticalAlign=top;spacingLeft=4;spacingRight=4;overflow=hidden;rotatable=0;points=[[0,0.5],[1,0.5]];portConstraint=eastwest;whiteSpace=wrap;html=1;" vertex="1" parent="k4hXc_sz66Rb-Vi4GGHc-9">
          <mxGeometry y="172" width="230" height="30" as="geometry" />
        </mxCell>
        <mxCell id="qmfV9Jtpk2RZpAjD8yst-40" value="&amp;nbsp;+fueOpinadaPor(Participante): boolean" style="text;strokeColor=none;fillColor=none;align=left;verticalAlign=top;spacingLeft=4;spacingRight=4;overflow=hidden;rotatable=0;points=[[0,0.5],[1,0.5]];portConstraint=eastwest;whiteSpace=wrap;html=1;" vertex="1" parent="k4hXc_sz66Rb-Vi4GGHc-9">
          <mxGeometry y="202" width="230" height="30" as="geometry" />
        </mxCell>
        <mxCell id="qmfV9Jtpk2RZpAjD8yst-41" value="&amp;nbsp;+soloOpinaronBasicos(): boolean" style="text;strokeColor=none;fillColor=none;align=left;verticalAlign=top;spacingLeft=4;spacingRight=4;overflow=hidden;rotatable=0;points=[[0,0.5],[1,0.5]];portConstraint=eastwest;whiteSpace=wrap;html=1;" vertex="1" parent="k4hXc_sz66Rb-Vi4GGHc-9">
          <mxGeometry y="232" width="230" height="30" as="geometry" />
        </mxCell>
        <mxCell id="k4hXc_sz66Rb-Vi4GGHc-17" value="ubicacion" style="endArrow=block;endFill=1;html=1;edgeStyle=orthogonalEdgeStyle;align=left;verticalAlign=top;rounded=0;exitX=0.083;exitY=1.146;exitDx=0;exitDy=0;exitPerimeter=0;entryX=1;entryY=0.5;entryDx=0;entryDy=0;" parent="1" source="qmfV9Jtpk2RZpAjD8yst-10" target="k4hXc_sz66Rb-Vi4GGHc-50" edge="1">
          <mxGeometry x="0.6163" y="-13" relative="1" as="geometry">
            <mxPoint x="350" y="400" as="sourcePoint" />
            <mxPoint x="280" y="580" as="targetPoint" />
            <Array as="points">
              <mxPoint x="341" y="399" />
            </Array>
            <mxPoint as="offset" />
          </mxGeometry>
        </mxCell>
        <mxCell id="k4hXc_sz66Rb-Vi4GGHc-18" value="1" style="edgeLabel;resizable=0;html=1;align=left;verticalAlign=bottom;" parent="k4hXc_sz66Rb-Vi4GGHc-17" connectable="0" vertex="1">
          <mxGeometry x="-1" relative="1" as="geometry">
            <mxPoint x="-101" y="189" as="offset" />
          </mxGeometry>
        </mxCell>
        <mxCell id="k4hXc_sz66Rb-Vi4GGHc-19" value="nivel" style="endArrow=block;endFill=1;html=1;edgeStyle=orthogonalEdgeStyle;align=left;verticalAlign=top;rounded=0;exitX=1;exitY=0.25;exitDx=0;exitDy=0;" parent="1" source="k4hXc_sz66Rb-Vi4GGHc-5" edge="1">
          <mxGeometry x="0.0415" relative="1" as="geometry">
            <mxPoint x="490" y="180" as="sourcePoint" />
            <mxPoint x="798" y="190" as="targetPoint" />
            <Array as="points">
              <mxPoint x="580" y="190" />
              <mxPoint x="798" y="190" />
            </Array>
            <mxPoint as="offset" />
          </mxGeometry>
        </mxCell>
        <mxCell id="k4hXc_sz66Rb-Vi4GGHc-21" value="1" style="edgeLabel;resizable=0;html=1;align=left;verticalAlign=bottom;" parent="1" connectable="0" vertex="1">
          <mxGeometry x="769.9999999999998" y="216.0000000000001" as="geometry">
            <mxPoint x="2" y="28" as="offset" />
          </mxGeometry>
        </mxCell>
        <mxCell id="k4hXc_sz66Rb-Vi4GGHc-24" value="ubicacion" style="endArrow=block;endFill=1;html=1;edgeStyle=orthogonalEdgeStyle;align=left;verticalAlign=top;rounded=0;entryX=0.864;entryY=-0.025;entryDx=0;entryDy=0;entryPerimeter=0;exitX=0.858;exitY=1.043;exitDx=0;exitDy=0;exitPerimeter=0;" parent="1" target="k4hXc_sz66Rb-Vi4GGHc-49" edge="1" source="qmfV9Jtpk2RZpAjD8yst-41">
          <mxGeometry x="-0.8188" relative="1" as="geometry">
            <mxPoint x="200" y="220" as="sourcePoint" />
            <mxPoint x="330" y="380" as="targetPoint" />
            <Array as="points">
              <mxPoint x="190" y="286" />
            </Array>
            <mxPoint as="offset" />
          </mxGeometry>
        </mxCell>
        <mxCell id="k4hXc_sz66Rb-Vi4GGHc-25" value="1" style="edgeLabel;resizable=0;html=1;align=left;verticalAlign=bottom;" parent="k4hXc_sz66Rb-Vi4GGHc-24" connectable="0" vertex="1">
          <mxGeometry x="-1" relative="1" as="geometry">
            <mxPoint x="103" y="320" as="offset" />
          </mxGeometry>
        </mxCell>
        <mxCell id="k4hXc_sz66Rb-Vi4GGHc-26" value="autor" style="endArrow=block;endFill=1;html=1;edgeStyle=orthogonalEdgeStyle;align=left;verticalAlign=top;rounded=0;exitX=1.011;exitY=0.172;exitDx=0;exitDy=0;exitPerimeter=0;" parent="1" edge="1" source="qmfV9Jtpk2RZpAjD8yst-36">
          <mxGeometry x="-0.4432" y="-7" relative="1" as="geometry">
            <mxPoint x="250" y="220" as="sourcePoint" />
            <mxPoint x="330" y="190" as="targetPoint" />
            <mxPoint as="offset" />
            <Array as="points">
              <mxPoint x="330" y="190" />
            </Array>
          </mxGeometry>
        </mxCell>
        <mxCell id="k4hXc_sz66Rb-Vi4GGHc-38" value="NivelBasico" style="swimlane;fontStyle=1;align=center;verticalAlign=top;childLayout=stackLayout;horizontal=1;startSize=26;horizontalStack=0;resizeParent=1;resizeParentMax=0;resizeLast=0;collapsible=1;marginBottom=0;whiteSpace=wrap;html=1;" parent="1" vertex="1">
          <mxGeometry x="1200" y="110" width="260" height="164" as="geometry" />
        </mxCell>
        <mxCell id="k4hXc_sz66Rb-Vi4GGHc-40" value="" style="line;strokeWidth=1;fillColor=none;align=left;verticalAlign=middle;spacingTop=-1;spacingLeft=3;spacingRight=3;rotatable=0;labelPosition=right;points=[];portConstraint=eastwest;strokeColor=inherit;" parent="k4hXc_sz66Rb-Vi4GGHc-38" vertex="1">
          <mxGeometry y="26" width="260" height="8" as="geometry" />
        </mxCell>
        <mxCell id="qmfV9Jtpk2RZpAjD8yst-21" value="+actualizarNivel(Participante)" style="text;strokeColor=none;fillColor=none;align=left;verticalAlign=top;spacingLeft=4;spacingRight=4;overflow=hidden;rotatable=0;points=[[0,0.5],[1,0.5]];portConstraint=eastwest;whiteSpace=wrap;html=1;" vertex="1" parent="k4hXc_sz66Rb-Vi4GGHc-38">
          <mxGeometry y="34" width="260" height="26" as="geometry" />
        </mxCell>
        <mxCell id="qmfV9Jtpk2RZpAjD8yst-22" value="+puedeMantenerSuNivel(Participante):boolean" style="text;strokeColor=none;fillColor=none;align=left;verticalAlign=top;spacingLeft=4;spacingRight=4;overflow=hidden;rotatable=0;points=[[0,0.5],[1,0.5]];portConstraint=eastwest;whiteSpace=wrap;html=1;" vertex="1" parent="k4hXc_sz66Rb-Vi4GGHc-38">
          <mxGeometry y="60" width="260" height="26" as="geometry" />
        </mxCell>
        <mxCell id="qmfV9Jtpk2RZpAjD8yst-23" value="+isBasico():boolean" style="text;strokeColor=none;fillColor=none;align=left;verticalAlign=top;spacingLeft=4;spacingRight=4;overflow=hidden;rotatable=0;points=[[0,0.5],[1,0.5]];portConstraint=eastwest;whiteSpace=wrap;html=1;" vertex="1" parent="k4hXc_sz66Rb-Vi4GGHc-38">
          <mxGeometry y="86" width="260" height="26" as="geometry" />
        </mxCell>
        <mxCell id="qmfV9Jtpk2RZpAjD8yst-24" value="+isExperto():boolean" style="text;strokeColor=none;fillColor=none;align=left;verticalAlign=top;spacingLeft=4;spacingRight=4;overflow=hidden;rotatable=0;points=[[0,0.5],[1,0.5]];portConstraint=eastwest;whiteSpace=wrap;html=1;" vertex="1" parent="k4hXc_sz66Rb-Vi4GGHc-38">
          <mxGeometry y="112" width="260" height="26" as="geometry" />
        </mxCell>
        <mxCell id="qmfV9Jtpk2RZpAjD8yst-25" value="+puedeOpinar(Muestra):boolean" style="text;strokeColor=none;fillColor=none;align=left;verticalAlign=top;spacingLeft=4;spacingRight=4;overflow=hidden;rotatable=0;points=[[0,0.5],[1,0.5]];portConstraint=eastwest;whiteSpace=wrap;html=1;" vertex="1" parent="k4hXc_sz66Rb-Vi4GGHc-38">
          <mxGeometry y="138" width="260" height="26" as="geometry" />
        </mxCell>
        <mxCell id="k4hXc_sz66Rb-Vi4GGHc-43" value="Extends" style="endArrow=block;endSize=16;endFill=0;html=1;rounded=0;entryX=0.998;entryY=0.065;entryDx=0;entryDy=0;entryPerimeter=0;" parent="1" source="k4hXc_sz66Rb-Vi4GGHc-38" target="F9GrxfI-e3hsAR45wxRk-3" edge="1">
          <mxGeometry x="-0.1862" y="-7" width="160" relative="1" as="geometry">
            <mxPoint x="1180" y="212" as="sourcePoint" />
            <mxPoint x="1050" y="227" as="targetPoint" />
            <mxPoint as="offset" />
          </mxGeometry>
        </mxCell>
        <mxCell id="k4hXc_sz66Rb-Vi4GGHc-44" value="Extends" style="endArrow=block;endSize=16;endFill=0;html=1;rounded=0;entryX=1;entryY=0.5;entryDx=0;entryDy=0;exitX=0;exitY=0;exitDx=0;exitDy=0;" parent="1" source="qmfV9Jtpk2RZpAjD8yst-26" target="F9GrxfI-e3hsAR45wxRk-1" edge="1">
          <mxGeometry width="160" relative="1" as="geometry">
            <mxPoint x="1206.25" y="284" as="sourcePoint" />
            <mxPoint x="920" y="297" as="targetPoint" />
          </mxGeometry>
        </mxCell>
        <mxCell id="k4hXc_sz66Rb-Vi4GGHc-45" value="Especialista" style="swimlane;fontStyle=1;align=center;verticalAlign=top;childLayout=stackLayout;horizontal=1;startSize=26;horizontalStack=0;resizeParent=1;resizeParentMax=0;resizeLast=0;collapsible=1;marginBottom=0;whiteSpace=wrap;html=1;" parent="1" vertex="1">
          <mxGeometry x="667" y="20" width="160" height="60" as="geometry" />
        </mxCell>
        <mxCell id="k4hXc_sz66Rb-Vi4GGHc-47" value="" style="line;strokeWidth=1;fillColor=none;align=left;verticalAlign=middle;spacingTop=-1;spacingLeft=3;spacingRight=3;rotatable=0;labelPosition=right;points=[];portConstraint=eastwest;strokeColor=inherit;" parent="k4hXc_sz66Rb-Vi4GGHc-45" vertex="1">
          <mxGeometry y="26" width="160" height="8" as="geometry" />
        </mxCell>
        <mxCell id="k4hXc_sz66Rb-Vi4GGHc-48" value="&lt;u&gt;+ Especialista(Ubicacion)&lt;/u&gt;" style="text;strokeColor=none;fillColor=none;align=left;verticalAlign=top;spacingLeft=4;spacingRight=4;overflow=hidden;rotatable=0;points=[[0,0.5],[1,0.5]];portConstraint=eastwest;whiteSpace=wrap;html=1;" parent="k4hXc_sz66Rb-Vi4GGHc-45" vertex="1">
          <mxGeometry y="34" width="160" height="26" as="geometry" />
        </mxCell>
        <mxCell id="k4hXc_sz66Rb-Vi4GGHc-49" value="Ubicacion" style="swimlane;fontStyle=1;align=center;verticalAlign=top;childLayout=stackLayout;horizontal=1;startSize=26;horizontalStack=0;resizeParent=1;resizeParentMax=0;resizeLast=0;collapsible=1;marginBottom=0;whiteSpace=wrap;html=1;" parent="1" vertex="1">
          <mxGeometry y="360" width="220" height="160" as="geometry" />
        </mxCell>
        <mxCell id="k4hXc_sz66Rb-Vi4GGHc-50" value="-latitud: double" style="text;strokeColor=none;fillColor=none;align=left;verticalAlign=top;spacingLeft=4;spacingRight=4;overflow=hidden;rotatable=0;points=[[0,0.5],[1,0.5]];portConstraint=eastwest;whiteSpace=wrap;html=1;" parent="k4hXc_sz66Rb-Vi4GGHc-49" vertex="1">
          <mxGeometry y="26" width="220" height="26" as="geometry" />
        </mxCell>
        <mxCell id="k4hXc_sz66Rb-Vi4GGHc-53" value="-longitud: double" style="text;strokeColor=none;fillColor=none;align=left;verticalAlign=top;spacingLeft=4;spacingRight=4;overflow=hidden;rotatable=0;points=[[0,0.5],[1,0.5]];portConstraint=eastwest;whiteSpace=wrap;html=1;" parent="k4hXc_sz66Rb-Vi4GGHc-49" vertex="1">
          <mxGeometry y="52" width="220" height="26" as="geometry" />
        </mxCell>
        <mxCell id="k4hXc_sz66Rb-Vi4GGHc-51" value="" style="line;strokeWidth=1;fillColor=none;align=left;verticalAlign=middle;spacingTop=-1;spacingLeft=3;spacingRight=3;rotatable=0;labelPosition=right;points=[];portConstraint=eastwest;strokeColor=inherit;" parent="k4hXc_sz66Rb-Vi4GGHc-49" vertex="1">
          <mxGeometry y="78" width="220" height="8" as="geometry" />
        </mxCell>
        <mxCell id="k4hXc_sz66Rb-Vi4GGHc-52" value="+distanciaCon(Ubicacion): double" style="text;strokeColor=none;fillColor=none;align=left;verticalAlign=top;spacingLeft=4;spacingRight=4;overflow=hidden;rotatable=0;points=[[0,0.5],[1,0.5]];portConstraint=eastwest;whiteSpace=wrap;html=1;" parent="k4hXc_sz66Rb-Vi4GGHc-49" vertex="1">
          <mxGeometry y="86" width="220" height="26" as="geometry" />
        </mxCell>
        <mxCell id="k4hXc_sz66Rb-Vi4GGHc-54" value="+aMenosDe(double, List&amp;lt;Ubicacion&amp;gt;): List&amp;lt;Ubicacion&amp;gt;" style="text;strokeColor=none;fillColor=none;align=left;verticalAlign=top;spacingLeft=4;spacingRight=4;overflow=hidden;rotatable=0;points=[[0,0.5],[1,0.5]];portConstraint=eastwest;whiteSpace=wrap;html=1;" parent="k4hXc_sz66Rb-Vi4GGHc-49" vertex="1">
          <mxGeometry y="112" width="220" height="48" as="geometry" />
        </mxCell>
        <mxCell id="k4hXc_sz66Rb-Vi4GGHc-55" value="ZonaDeCobertura" style="swimlane;fontStyle=1;align=center;verticalAlign=top;childLayout=stackLayout;horizontal=1;startSize=26;horizontalStack=0;resizeParent=1;resizeParentMax=0;resizeLast=0;collapsible=1;marginBottom=0;whiteSpace=wrap;html=1;" parent="1" vertex="1">
          <mxGeometry x="600" y="580.0000000000001" width="160" height="112" as="geometry" />
        </mxCell>
        <mxCell id="k4hXc_sz66Rb-Vi4GGHc-56" value="-nombre: String" style="text;strokeColor=none;fillColor=none;align=left;verticalAlign=top;spacingLeft=4;spacingRight=4;overflow=hidden;rotatable=0;points=[[0,0.5],[1,0.5]];portConstraint=eastwest;whiteSpace=wrap;html=1;" parent="k4hXc_sz66Rb-Vi4GGHc-55" vertex="1">
          <mxGeometry y="26" width="160" height="26" as="geometry" />
        </mxCell>
        <mxCell id="k4hXc_sz66Rb-Vi4GGHc-76" value="-radio: double" style="text;strokeColor=none;fillColor=none;align=left;verticalAlign=top;spacingLeft=4;spacingRight=4;overflow=hidden;rotatable=0;points=[[0,0.5],[1,0.5]];portConstraint=eastwest;whiteSpace=wrap;html=1;" parent="k4hXc_sz66Rb-Vi4GGHc-55" vertex="1">
          <mxGeometry y="52" width="160" height="26" as="geometry" />
        </mxCell>
        <mxCell id="k4hXc_sz66Rb-Vi4GGHc-57" value="" style="line;strokeWidth=1;fillColor=none;align=left;verticalAlign=middle;spacingTop=-1;spacingLeft=3;spacingRight=3;rotatable=0;labelPosition=right;points=[];portConstraint=eastwest;strokeColor=inherit;" parent="k4hXc_sz66Rb-Vi4GGHc-55" vertex="1">
          <mxGeometry y="78" width="160" height="8" as="geometry" />
        </mxCell>
        <mxCell id="k4hXc_sz66Rb-Vi4GGHc-58" value="+ method(type): type" style="text;strokeColor=none;fillColor=none;align=left;verticalAlign=top;spacingLeft=4;spacingRight=4;overflow=hidden;rotatable=0;points=[[0,0.5],[1,0.5]];portConstraint=eastwest;whiteSpace=wrap;html=1;" parent="k4hXc_sz66Rb-Vi4GGHc-55" vertex="1">
          <mxGeometry y="86" width="160" height="26" as="geometry" />
        </mxCell>
        <mxCell id="qmfV9Jtpk2RZpAjD8yst-7" value="" style="edgeStyle=orthogonalEdgeStyle;rounded=0;orthogonalLoop=1;jettySize=auto;html=1;" edge="1" parent="1" source="k4hXc_sz66Rb-Vi4GGHc-59" target="qmfV9Jtpk2RZpAjD8yst-10">
          <mxGeometry relative="1" as="geometry">
            <Array as="points">
              <mxPoint x="470" y="243" />
              <mxPoint x="470" y="243" />
            </Array>
          </mxGeometry>
        </mxCell>
        <mxCell id="k4hXc_sz66Rb-Vi4GGHc-59" value="Opinion" style="swimlane;fontStyle=1;align=center;verticalAlign=top;childLayout=stackLayout;horizontal=1;startSize=26;horizontalStack=0;resizeParent=1;resizeParentMax=0;resizeLast=0;collapsible=1;marginBottom=0;whiteSpace=wrap;html=1;" parent="1" vertex="1">
          <mxGeometry x="390" y="274" width="170" height="110" as="geometry" />
        </mxCell>
        <mxCell id="k4hXc_sz66Rb-Vi4GGHc-73" value="-fechaDeCreacion:LocalDate" style="text;strokeColor=none;fillColor=none;align=left;verticalAlign=top;spacingLeft=4;spacingRight=4;overflow=hidden;rotatable=0;points=[[0,0.5],[1,0.5]];portConstraint=eastwest;whiteSpace=wrap;html=1;" parent="k4hXc_sz66Rb-Vi4GGHc-59" vertex="1">
          <mxGeometry y="26" width="170" height="24" as="geometry" />
        </mxCell>
        <mxCell id="k4hXc_sz66Rb-Vi4GGHc-61" value="" style="line;strokeWidth=1;fillColor=none;align=left;verticalAlign=middle;spacingTop=-1;spacingLeft=3;spacingRight=3;rotatable=0;labelPosition=right;points=[];portConstraint=eastwest;strokeColor=inherit;" parent="k4hXc_sz66Rb-Vi4GGHc-59" vertex="1">
          <mxGeometry y="50" width="170" height="8" as="geometry" />
        </mxCell>
        <mxCell id="k4hXc_sz66Rb-Vi4GGHc-62" value="+ isBasico():boolean&amp;nbsp;" style="text;strokeColor=none;fillColor=none;align=left;verticalAlign=top;spacingLeft=4;spacingRight=4;overflow=hidden;rotatable=0;points=[[0,0.5],[1,0.5]];portConstraint=eastwest;whiteSpace=wrap;html=1;" parent="k4hXc_sz66Rb-Vi4GGHc-59" vertex="1">
          <mxGeometry y="58" width="170" height="26" as="geometry" />
        </mxCell>
        <mxCell id="qmfV9Jtpk2RZpAjD8yst-48" value="+ isExperto():boolean&amp;nbsp;" style="text;strokeColor=none;fillColor=none;align=left;verticalAlign=top;spacingLeft=4;spacingRight=4;overflow=hidden;rotatable=0;points=[[0,0.5],[1,0.5]];portConstraint=eastwest;whiteSpace=wrap;html=1;" vertex="1" parent="k4hXc_sz66Rb-Vi4GGHc-59">
          <mxGeometry y="84" width="170" height="26" as="geometry" />
        </mxCell>
        <mxCell id="k4hXc_sz66Rb-Vi4GGHc-80" value="1" style="edgeLabel;resizable=0;html=1;align=left;verticalAlign=bottom;" parent="1" connectable="0" vertex="1">
          <mxGeometry x="269.9999999999999" y="199.99600000000004" as="geometry">
            <mxPoint x="-110" y="144" as="offset" />
          </mxGeometry>
        </mxCell>
        <mxCell id="k4hXc_sz66Rb-Vi4GGHc-81" value="Organizacion" style="swimlane;fontStyle=1;align=center;verticalAlign=top;childLayout=stackLayout;horizontal=1;startSize=26;horizontalStack=0;resizeParent=1;resizeParentMax=0;resizeLast=0;collapsible=1;marginBottom=0;whiteSpace=wrap;html=1;" parent="1" vertex="1">
          <mxGeometry x="30.00000000000003" y="580.0000000000001" width="160" height="124" as="geometry" />
        </mxCell>
        <mxCell id="k4hXc_sz66Rb-Vi4GGHc-82" value="+tipo:String" style="text;strokeColor=none;fillColor=none;align=left;verticalAlign=top;spacingLeft=4;spacingRight=4;overflow=hidden;rotatable=0;points=[[0,0.5],[1,0.5]];portConstraint=eastwest;whiteSpace=wrap;html=1;" parent="k4hXc_sz66Rb-Vi4GGHc-81" vertex="1">
          <mxGeometry y="26" width="160" height="26" as="geometry" />
        </mxCell>
        <mxCell id="k4hXc_sz66Rb-Vi4GGHc-85" value="+cantidadDeTrabajadores: int" style="text;strokeColor=none;fillColor=none;align=left;verticalAlign=top;spacingLeft=4;spacingRight=4;overflow=hidden;rotatable=0;points=[[0,0.5],[1,0.5]];portConstraint=eastwest;whiteSpace=wrap;html=1;" parent="k4hXc_sz66Rb-Vi4GGHc-81" vertex="1">
          <mxGeometry y="52" width="160" height="38" as="geometry" />
        </mxCell>
        <mxCell id="k4hXc_sz66Rb-Vi4GGHc-83" value="" style="line;strokeWidth=1;fillColor=none;align=left;verticalAlign=middle;spacingTop=-1;spacingLeft=3;spacingRight=3;rotatable=0;labelPosition=right;points=[];portConstraint=eastwest;strokeColor=inherit;" parent="k4hXc_sz66Rb-Vi4GGHc-81" vertex="1">
          <mxGeometry y="90" width="160" height="8" as="geometry" />
        </mxCell>
        <mxCell id="k4hXc_sz66Rb-Vi4GGHc-84" value="+ method(type): type" style="text;strokeColor=none;fillColor=none;align=left;verticalAlign=top;spacingLeft=4;spacingRight=4;overflow=hidden;rotatable=0;points=[[0,0.5],[1,0.5]];portConstraint=eastwest;whiteSpace=wrap;html=1;" parent="k4hXc_sz66Rb-Vi4GGHc-81" vertex="1">
          <mxGeometry y="98" width="160" height="26" as="geometry" />
        </mxCell>
        <mxCell id="k4hXc_sz66Rb-Vi4GGHc-87" value="ubicacion" style="endArrow=block;endFill=1;html=1;edgeStyle=orthogonalEdgeStyle;align=left;verticalAlign=top;rounded=0;exitX=0.5;exitY=0;exitDx=0;exitDy=0;entryX=0.499;entryY=1.081;entryDx=0;entryDy=0;entryPerimeter=0;" parent="1" source="k4hXc_sz66Rb-Vi4GGHc-81" target="k4hXc_sz66Rb-Vi4GGHc-54" edge="1">
          <mxGeometry x="0.6188" y="60" relative="1" as="geometry">
            <mxPoint x="140" y="640" as="sourcePoint" />
            <mxPoint x="120" y="550" as="targetPoint" />
            <mxPoint as="offset" />
            <Array as="points">
              <mxPoint x="110" y="620" />
              <mxPoint x="110" y="620" />
            </Array>
          </mxGeometry>
        </mxCell>
        <mxCell id="k4hXc_sz66Rb-Vi4GGHc-88" value="1" style="edgeLabel;resizable=0;html=1;align=left;verticalAlign=bottom;" parent="k4hXc_sz66Rb-Vi4GGHc-87" connectable="0" vertex="1">
          <mxGeometry x="-1" relative="1" as="geometry">
            <mxPoint x="5" y="-40" as="offset" />
          </mxGeometry>
        </mxCell>
        <mxCell id="k4hXc_sz66Rb-Vi4GGHc-89" value="FuncionalidadExterna&lt;br&gt;&amp;lt;&amp;lt;interface&amp;gt;&amp;gt;" style="swimlane;fontStyle=1;align=center;verticalAlign=top;childLayout=stackLayout;horizontal=1;startSize=40;horizontalStack=0;resizeParent=1;resizeParentMax=0;resizeLast=0;collapsible=1;marginBottom=0;whiteSpace=wrap;html=1;" parent="1" vertex="1">
          <mxGeometry x="334" y="580.0000000000001" width="160" height="100" as="geometry" />
        </mxCell>
        <mxCell id="k4hXc_sz66Rb-Vi4GGHc-90" value="+ field: type" style="text;strokeColor=none;fillColor=none;align=left;verticalAlign=top;spacingLeft=4;spacingRight=4;overflow=hidden;rotatable=0;points=[[0,0.5],[1,0.5]];portConstraint=eastwest;whiteSpace=wrap;html=1;" parent="k4hXc_sz66Rb-Vi4GGHc-89" vertex="1">
          <mxGeometry y="40" width="160" height="26" as="geometry" />
        </mxCell>
        <mxCell id="k4hXc_sz66Rb-Vi4GGHc-91" value="" style="line;strokeWidth=1;fillColor=none;align=left;verticalAlign=middle;spacingTop=-1;spacingLeft=3;spacingRight=3;rotatable=0;labelPosition=right;points=[];portConstraint=eastwest;strokeColor=inherit;" parent="k4hXc_sz66Rb-Vi4GGHc-89" vertex="1">
          <mxGeometry y="66" width="160" height="8" as="geometry" />
        </mxCell>
        <mxCell id="k4hXc_sz66Rb-Vi4GGHc-92" value="+ method(type): type" style="text;strokeColor=none;fillColor=none;align=left;verticalAlign=top;spacingLeft=4;spacingRight=4;overflow=hidden;rotatable=0;points=[[0,0.5],[1,0.5]];portConstraint=eastwest;whiteSpace=wrap;html=1;" parent="k4hXc_sz66Rb-Vi4GGHc-89" vertex="1">
          <mxGeometry y="74" width="160" height="26" as="geometry" />
        </mxCell>
        <mxCell id="k4hXc_sz66Rb-Vi4GGHc-93" value="funcionalidad" style="endArrow=block;endFill=1;html=1;edgeStyle=orthogonalEdgeStyle;align=left;verticalAlign=top;rounded=0;exitX=1;exitY=0.5;exitDx=0;exitDy=0;" parent="1" source="k4hXc_sz66Rb-Vi4GGHc-82" target="k4hXc_sz66Rb-Vi4GGHc-89" edge="1">
          <mxGeometry x="-0.5833" y="-11" relative="1" as="geometry">
            <mxPoint x="330" y="402.0000000000001" as="sourcePoint" />
            <mxPoint x="490" y="402.0000000000001" as="targetPoint" />
            <mxPoint x="-1" as="offset" />
            <Array as="points">
              <mxPoint x="300" y="619" />
              <mxPoint x="300" y="619" />
            </Array>
          </mxGeometry>
        </mxCell>
        <mxCell id="k4hXc_sz66Rb-Vi4GGHc-94" value="1" style="edgeLabel;resizable=0;html=1;align=left;verticalAlign=bottom;" parent="k4hXc_sz66Rb-Vi4GGHc-93" connectable="0" vertex="1">
          <mxGeometry x="-1" relative="1" as="geometry">
            <mxPoint x="150" y="32" as="offset" />
          </mxGeometry>
        </mxCell>
        <mxCell id="k4hXc_sz66Rb-Vi4GGHc-95" value="1" style="edgeLabel;resizable=0;html=1;align=left;verticalAlign=bottom;" parent="1" connectable="0" vertex="1">
          <mxGeometry x="170.00000000000023" y="690" as="geometry" />
        </mxCell>
        <mxCell id="RgBHUJOFRDp-fcr00f06-1" value="Extends" style="endArrow=block;endSize=16;endFill=0;html=1;rounded=0;entryX=1.011;entryY=0.844;entryDx=0;entryDy=0;entryPerimeter=0;exitX=0;exitY=0.25;exitDx=0;exitDy=0;" parent="1" source="k4hXc_sz66Rb-Vi4GGHc-45" target="k4hXc_sz66Rb-Vi4GGHc-23" edge="1">
          <mxGeometry width="160" relative="1" as="geometry">
            <mxPoint x="650" y="480" as="sourcePoint" />
            <mxPoint x="810" y="480" as="targetPoint" />
          </mxGeometry>
        </mxCell>
        <mxCell id="VWDIG5IBCp3mxo8gKgHF-4" value="EstadoMuestra&lt;br&gt;&amp;lt;&amp;lt;abstract&amp;gt;&amp;gt;" style="swimlane;fontStyle=1;align=center;verticalAlign=top;childLayout=stackLayout;horizontal=1;startSize=40;horizontalStack=0;resizeParent=1;resizeParentMax=0;resizeLast=0;collapsible=1;marginBottom=0;whiteSpace=wrap;html=1;" parent="1" vertex="1">
          <mxGeometry x="-530" y="48" width="340" height="144" as="geometry" />
        </mxCell>
        <mxCell id="VWDIG5IBCp3mxo8gKgHF-5" value="" style="line;strokeWidth=1;fillColor=none;align=left;verticalAlign=middle;spacingTop=-1;spacingLeft=3;spacingRight=3;rotatable=0;labelPosition=right;points=[];portConstraint=eastwest;strokeColor=inherit;" parent="VWDIG5IBCp3mxo8gKgHF-4" vertex="1">
          <mxGeometry y="40" width="340" height="8" as="geometry" />
        </mxCell>
        <mxCell id="VWDIG5IBCp3mxo8gKgHF-6" value="&lt;span&gt;+resultadoActual(Muestra)TipoDeOpinion&lt;/span&gt;" style="text;strokeColor=none;fillColor=none;align=left;verticalAlign=top;spacingLeft=4;spacingRight=4;overflow=hidden;rotatable=0;points=[[0,0.5],[1,0.5]];portConstraint=eastwest;whiteSpace=wrap;html=1;fontStyle=2" parent="VWDIG5IBCp3mxo8gKgHF-4" vertex="1">
          <mxGeometry y="48" width="340" height="32" as="geometry" />
        </mxCell>
        <mxCell id="qmfV9Jtpk2RZpAjD8yst-53" value="&lt;i&gt;+verificarOActualizar(Muestra muestra, Opinion)&lt;/i&gt;" style="text;strokeColor=none;fillColor=none;align=left;verticalAlign=top;spacingLeft=4;spacingRight=4;overflow=hidden;rotatable=0;points=[[0,0.5],[1,0.5]];portConstraint=eastwest;whiteSpace=wrap;html=1;" vertex="1" parent="VWDIG5IBCp3mxo8gKgHF-4">
          <mxGeometry y="80" width="340" height="32" as="geometry" />
        </mxCell>
        <mxCell id="qmfV9Jtpk2RZpAjD8yst-52" value="&lt;span&gt;+tipoConMasCoincidencia(Stream&amp;lt;Opinion&amp;gt;):TipoDeOpinion&lt;/span&gt;" style="text;strokeColor=none;fillColor=none;align=left;verticalAlign=top;spacingLeft=4;spacingRight=4;overflow=hidden;rotatable=0;points=[[0,0.5],[1,0.5]];portConstraint=eastwest;whiteSpace=wrap;html=1;fontStyle=0" vertex="1" parent="VWDIG5IBCp3mxo8gKgHF-4">
          <mxGeometry y="112" width="340" height="32" as="geometry" />
        </mxCell>
        <mxCell id="VWDIG5IBCp3mxo8gKgHF-8" value="EstadoMuestraBasico" style="swimlane;fontStyle=1;align=center;verticalAlign=top;childLayout=stackLayout;horizontal=1;startSize=26;horizontalStack=0;resizeParent=1;resizeParentMax=0;resizeLast=0;collapsible=1;marginBottom=0;whiteSpace=wrap;html=1;" parent="1" vertex="1">
          <mxGeometry x="-300" y="262" width="270" height="98" as="geometry" />
        </mxCell>
        <mxCell id="VWDIG5IBCp3mxo8gKgHF-10" value="" style="line;strokeWidth=1;fillColor=none;align=left;verticalAlign=middle;spacingTop=-1;spacingLeft=3;spacingRight=3;rotatable=0;labelPosition=right;points=[];portConstraint=eastwest;strokeColor=inherit;" parent="VWDIG5IBCp3mxo8gKgHF-8" vertex="1">
          <mxGeometry y="26" width="270" height="8" as="geometry" />
        </mxCell>
        <mxCell id="qmfV9Jtpk2RZpAjD8yst-54" value="&lt;span&gt;+resultadoActual(Muestra)TipoDeOpinion&lt;/span&gt;" style="text;strokeColor=none;fillColor=none;align=left;verticalAlign=top;spacingLeft=4;spacingRight=4;overflow=hidden;rotatable=0;points=[[0,0.5],[1,0.5]];portConstraint=eastwest;whiteSpace=wrap;html=1;fontStyle=0" vertex="1" parent="VWDIG5IBCp3mxo8gKgHF-8">
          <mxGeometry y="34" width="270" height="32" as="geometry" />
        </mxCell>
        <mxCell id="qmfV9Jtpk2RZpAjD8yst-55" value="&lt;span&gt;+verificarOActualizar(Muestra muestra, Opinion)&lt;/span&gt;" style="text;strokeColor=none;fillColor=none;align=left;verticalAlign=top;spacingLeft=4;spacingRight=4;overflow=hidden;rotatable=0;points=[[0,0.5],[1,0.5]];portConstraint=eastwest;whiteSpace=wrap;html=1;fontStyle=0" vertex="1" parent="VWDIG5IBCp3mxo8gKgHF-8">
          <mxGeometry y="66" width="270" height="32" as="geometry" />
        </mxCell>
        <mxCell id="qmfV9Jtpk2RZpAjD8yst-26" value="NivelExperto" style="swimlane;fontStyle=1;align=center;verticalAlign=top;childLayout=stackLayout;horizontal=1;startSize=26;horizontalStack=0;resizeParent=1;resizeParentMax=0;resizeLast=0;collapsible=1;marginBottom=0;whiteSpace=wrap;html=1;" vertex="1" parent="1">
          <mxGeometry x="1200" y="296" width="260" height="164" as="geometry" />
        </mxCell>
        <mxCell id="qmfV9Jtpk2RZpAjD8yst-27" value="" style="line;strokeWidth=1;fillColor=none;align=left;verticalAlign=middle;spacingTop=-1;spacingLeft=3;spacingRight=3;rotatable=0;labelPosition=right;points=[];portConstraint=eastwest;strokeColor=inherit;" vertex="1" parent="qmfV9Jtpk2RZpAjD8yst-26">
          <mxGeometry y="26" width="260" height="8" as="geometry" />
        </mxCell>
        <mxCell id="qmfV9Jtpk2RZpAjD8yst-28" value="+actualizarNivel(Participante)" style="text;strokeColor=none;fillColor=none;align=left;verticalAlign=top;spacingLeft=4;spacingRight=4;overflow=hidden;rotatable=0;points=[[0,0.5],[1,0.5]];portConstraint=eastwest;whiteSpace=wrap;html=1;" vertex="1" parent="qmfV9Jtpk2RZpAjD8yst-26">
          <mxGeometry y="34" width="260" height="26" as="geometry" />
        </mxCell>
        <mxCell id="qmfV9Jtpk2RZpAjD8yst-29" value="+puedeMantenerSuNivel(Participante):boolean" style="text;strokeColor=none;fillColor=none;align=left;verticalAlign=top;spacingLeft=4;spacingRight=4;overflow=hidden;rotatable=0;points=[[0,0.5],[1,0.5]];portConstraint=eastwest;whiteSpace=wrap;html=1;" vertex="1" parent="qmfV9Jtpk2RZpAjD8yst-26">
          <mxGeometry y="60" width="260" height="26" as="geometry" />
        </mxCell>
        <mxCell id="qmfV9Jtpk2RZpAjD8yst-30" value="+isBasico():boolean" style="text;strokeColor=none;fillColor=none;align=left;verticalAlign=top;spacingLeft=4;spacingRight=4;overflow=hidden;rotatable=0;points=[[0,0.5],[1,0.5]];portConstraint=eastwest;whiteSpace=wrap;html=1;" vertex="1" parent="qmfV9Jtpk2RZpAjD8yst-26">
          <mxGeometry y="86" width="260" height="26" as="geometry" />
        </mxCell>
        <mxCell id="qmfV9Jtpk2RZpAjD8yst-31" value="+isExperto():boolean" style="text;strokeColor=none;fillColor=none;align=left;verticalAlign=top;spacingLeft=4;spacingRight=4;overflow=hidden;rotatable=0;points=[[0,0.5],[1,0.5]];portConstraint=eastwest;whiteSpace=wrap;html=1;" vertex="1" parent="qmfV9Jtpk2RZpAjD8yst-26">
          <mxGeometry y="112" width="260" height="26" as="geometry" />
        </mxCell>
        <mxCell id="qmfV9Jtpk2RZpAjD8yst-32" value="+puedeOpinar(Muestra):boolean" style="text;strokeColor=none;fillColor=none;align=left;verticalAlign=top;spacingLeft=4;spacingRight=4;overflow=hidden;rotatable=0;points=[[0,0.5],[1,0.5]];portConstraint=eastwest;whiteSpace=wrap;html=1;" vertex="1" parent="qmfV9Jtpk2RZpAjD8yst-26">
          <mxGeometry y="138" width="260" height="26" as="geometry" />
        </mxCell>
        <mxCell id="qmfV9Jtpk2RZpAjD8yst-43" value="1" style="edgeLabel;resizable=0;html=1;align=left;verticalAlign=bottom;" connectable="0" vertex="1" parent="1">
          <mxGeometry x="419.9999999999999" y="39.99600000000004" as="geometry">
            <mxPoint x="-110" y="144" as="offset" />
          </mxGeometry>
        </mxCell>
        <mxCell id="qmfV9Jtpk2RZpAjD8yst-56" value="EstadoMuestraExperto" style="swimlane;fontStyle=1;align=center;verticalAlign=top;childLayout=stackLayout;horizontal=1;startSize=26;horizontalStack=0;resizeParent=1;resizeParentMax=0;resizeLast=0;collapsible=1;marginBottom=0;whiteSpace=wrap;html=1;" vertex="1" parent="1">
          <mxGeometry x="-640" y="262" width="270" height="98" as="geometry" />
        </mxCell>
        <mxCell id="qmfV9Jtpk2RZpAjD8yst-57" value="" style="line;strokeWidth=1;fillColor=none;align=left;verticalAlign=middle;spacingTop=-1;spacingLeft=3;spacingRight=3;rotatable=0;labelPosition=right;points=[];portConstraint=eastwest;strokeColor=inherit;" vertex="1" parent="qmfV9Jtpk2RZpAjD8yst-56">
          <mxGeometry y="26" width="270" height="8" as="geometry" />
        </mxCell>
        <mxCell id="qmfV9Jtpk2RZpAjD8yst-58" value="&lt;span&gt;+resultadoActual(Muestra)TipoDeOpinion&lt;/span&gt;" style="text;strokeColor=none;fillColor=none;align=left;verticalAlign=top;spacingLeft=4;spacingRight=4;overflow=hidden;rotatable=0;points=[[0,0.5],[1,0.5]];portConstraint=eastwest;whiteSpace=wrap;html=1;fontStyle=0" vertex="1" parent="qmfV9Jtpk2RZpAjD8yst-56">
          <mxGeometry y="34" width="270" height="32" as="geometry" />
        </mxCell>
        <mxCell id="qmfV9Jtpk2RZpAjD8yst-59" value="&lt;span&gt;+verificarOActualizar(Muestra muestra, Opinion)&lt;/span&gt;" style="text;strokeColor=none;fillColor=none;align=left;verticalAlign=top;spacingLeft=4;spacingRight=4;overflow=hidden;rotatable=0;points=[[0,0.5],[1,0.5]];portConstraint=eastwest;whiteSpace=wrap;html=1;fontStyle=0" vertex="1" parent="qmfV9Jtpk2RZpAjD8yst-56">
          <mxGeometry y="66" width="270" height="32" as="geometry" />
        </mxCell>
        <mxCell id="qmfV9Jtpk2RZpAjD8yst-60" value="Extends" style="endArrow=block;endSize=16;endFill=0;html=1;rounded=0;exitX=0.5;exitY=0;exitDx=0;exitDy=0;entryX=0.284;entryY=1.285;entryDx=0;entryDy=0;entryPerimeter=0;" edge="1" parent="1" source="qmfV9Jtpk2RZpAjD8yst-56" target="qmfV9Jtpk2RZpAjD8yst-52">
          <mxGeometry width="160" relative="1" as="geometry">
            <mxPoint x="-435" y="101" as="sourcePoint" />
            <mxPoint x="-275" y="101" as="targetPoint" />
          </mxGeometry>
        </mxCell>
        <mxCell id="qmfV9Jtpk2RZpAjD8yst-61" value="Extends" style="endArrow=block;endSize=16;endFill=0;html=1;rounded=0;exitX=0.5;exitY=0;exitDx=0;exitDy=0;entryX=0.787;entryY=1.167;entryDx=0;entryDy=0;entryPerimeter=0;" edge="1" parent="1" source="VWDIG5IBCp3mxo8gKgHF-8" target="qmfV9Jtpk2RZpAjD8yst-52">
          <mxGeometry width="160" relative="1" as="geometry">
            <mxPoint x="-360" y="119" as="sourcePoint" />
            <mxPoint x="-460" y="188" as="targetPoint" />
          </mxGeometry>
        </mxCell>
        <mxCell id="qmfV9Jtpk2RZpAjD8yst-71" value="ubicacion" style="endArrow=block;endFill=1;html=1;edgeStyle=orthogonalEdgeStyle;align=left;verticalAlign=top;rounded=0;exitX=0.5;exitY=0;exitDx=0;exitDy=0;entryX=1.001;entryY=0.993;entryDx=0;entryDy=0;entryPerimeter=0;" edge="1" parent="1" source="k4hXc_sz66Rb-Vi4GGHc-55" target="k4hXc_sz66Rb-Vi4GGHc-54">
          <mxGeometry x="-0.8462" y="-20" relative="1" as="geometry">
            <mxPoint x="450" y="470" as="sourcePoint" />
            <mxPoint x="290" y="470" as="targetPoint" />
            <Array as="points">
              <mxPoint x="680" y="520" />
            </Array>
            <mxPoint as="offset" />
          </mxGeometry>
        </mxCell>
        <mxCell id="qmfV9Jtpk2RZpAjD8yst-72" value="1" style="edgeLabel;resizable=0;html=1;align=left;verticalAlign=bottom;" connectable="0" vertex="1" parent="qmfV9Jtpk2RZpAjD8yst-71">
          <mxGeometry x="-1" relative="1" as="geometry">
            <mxPoint x="-450" y="-60" as="offset" />
          </mxGeometry>
        </mxCell>
      </root>
    </mxGraphModel>
  </diagram>
</mxfile>
